
<svg xmlns="http://www.w3.org/2000/svg" viewBox="0 0 24 24" fill="currentColor">
  <path d="M23 3a10.9 10.9 0 0 1-3.14 1.53A4.48 4.48 0 0 0 22.4.36a9.1 9.1 0 0 1-2.88 1.1A4.52 4.52 0 0 0 16.5 0c-2.5 0-4.5 2.17-4.5 4.72 0 .37.03.74.1 1.1-3.7-.2-7-2-9.2-4.7a4.8 4.8 0 0 0-.6 2.38c0 1.64.8 3.1 2.1 3.97a4.42 4.42 0 0 1-2-.56v.05c0 2.3 1.6 4.3 3.8 4.8a4.37 4.37 0 0 1-2 .08c.6 1.9 2.3 3.3 4.3 3.3a9.06 9.06 0 0 1-6.7 1.92A12.8 12.8 0 0 0 8 21c8.3 0 12.8-7.5 12.8-14 0-.2 0-.3 0-.5A9.4 9.4 0 0 0 23 3z"/>
</svg>
